#!OML:ASF H:\Terrain\Patient Classification 1\Walking\liu\liu.ASF
:FULLY-SPECIFIED
:DEGREES
129
root 9.11148 15.9468 -19.2334 6.34544 7.26166 5.8383
lowerback -8.864 -3.92244 -6.85289
upperback -1.18875 -4.63931 1.93747
thorax 4.43202 -2.43499 5.27647
lowerneck -19.5719 -5.50028 -13.3513
upperneck 20.4056 -6.45487 11.5517
head 10.6204 -2.69274 5.42945
rclavicle -3.4601e-015 -1.98785e-014
rhumerus -47.4363 5.81735 -82.616
rradius 32.6394
rwrist -19.1435
rhand -31.1059 -20.3332
rfingers 7.12502
rthumb -4.38543 -50.2678
lclavicle -3.4601e-015 -1.98785e-014
lhumerus -31.5096 -25.0094 98.2487
lradius 36.3964
lwrist 6.06623
lhand -14.3454 -25.7945
lfingers 7.12502
lthumb 11.7961 3.85326
rfemur -42.9733 9.68073 5.2824
rtibia 27.1977
rfoot -23.1604 -11.8263
rtoes -21.0842
lfemur 19.5557 1.59693 -26.6348
ltibia -4.13472e-014
lfoot -14.1474 -2.11077
ltoes -8.09661
130
root 9.08708 15.9342 -19.076 6.1551 7.92238 6.07836
lowerback -8.34961 -4.09867 -7.07527
upperback -1.19181 -4.88703 1.86029
thorax 4.18948 -2.55368 5.31458
lowerneck -19.6861 -5.51623 -13.2146
upperneck 20.551 -6.47405 11.3837
head 10.6861 -2.70694 5.34368
rclavicle 2.97556e-015 1.11319e-014
rhumerus -47.6547 5.74125 -82.5852
rradius 32.389
rwrist -19.0929
rhand -31.0912 -19.9622
rfingers 7.12502
rthumb -4.37119 -49.8971
lclavicle 2.97556e-015 1.11319e-014
lhumerus -32.1287 -24.603 98.6088
lradius 35.4747
lwrist 5.01315
lhand -15.1401 -25.437
lfingers 7.12502
lthumb 11.0297 4.25325
rfemur -42.3395 8.9455 5.39193
rtibia 27.4408
rfoot -22.2822 -11.1713
rtoes -20.8406
lfemur 20.329 1.26701 -26.5703
ltibia -1.90833e-014
lfoot -13.7189 -2.04092
ltoes -9.30832
131
root 9.05971 15.9097 -18.914 6.15093 8.27264 6.36445
lowerback -8.09389 -4.20693 -7.40963
upperback -1.21339 -5.01931 1.81328
thorax 4.06796 -2.61991 5.4508
lowerneck -19.6934 -5.58078 -13.2831
upperneck 20.7087 -6.52994 11.2834
head 10.7519 -2.7501 5.31323
rclavicle -3.27249e-014 1.43125e-014
rhumerus -47.704 5.58754 -82.5178
rradius 31.966
rwrist -19.0626
rhand -30.7156 -21.448
rfingers 7.12502
rthumb -4.00846 -51.39
lclavicle -3.27249e-014 1.43125e-014
lhumerus -32.4676 -23.7717 98.7507
lradius 34.7049
lwrist 4.83786
lhand -13.9995 -24.7141
lfingers 7.12502
lthumb 12.1296 4.91428
rfemur -42.0373 8.19978 5.5569
rtibia 27.8758
rfoot -21.3714 -10.0975
rtoes -19.6897
lfemur 20.9803 1.20165 -26.5356
ltibia -3.18055e-014
lfoot -13.114 -2.03684
ltoes -9.74805
132
root 9.02994 15.8873 -18.7453 6.30124 8.37356 6.32482
lowerback -8.15577 -4.17905 -7.40644
upperback -1.23856 -4.98018 1.86069
thorax 4.07409 -2.60034 5.50168
lowerneck -19.801 -5.65706 -13.4607
upperneck 20.6032 -6.57362 11.3431
head 10.7494 -2.77356 5.35486
rclavicle -3.66447e-014 -4.77083e-015
rhumerus -47.7071 5.27274 -82.3624
rradius 31.527
rwrist -18.8878
rhand -28.8052 -28.307
rfingers 7.12502
rthumb -2.16359 -58.2758
lclavicle -3.66447e-014 -4.77083e-015
lhumerus -32.6816 -23.0498 98.9154
lradius 33.6985
lwrist 4.47354
lhand -13.4972 -24.3358
lfingers 7.12502
lthumb 12.6139 5.2633
rfemur -42.078 7.55983 6.18275
rtibia 28.4767
rfoot -19.6252 -9.75313
rtoes -20.5326
lfemur 21.4441 1.37195 -26.1264
ltibia -7.31528e-014
lfoot -12.6723 -2.34384
ltoes -9.71582
133
root 9.00546 15.8832 -18.5706 6.3928 8.64565 6.11952
lowerback -8.2432 -4.19217 -7.10169
upperback -1.19302 -5.01692 1.857
thorax 4.15006 -2.61735 5.31392
lowerneck -20.0803 -5.67487 -13.2646
upperneck 20.4623 -6.5946 11.277
head 10.7437 -2.76552 5.28701
rclavicle 5.17461e-014 -1.59028e-014
rhumerus -47.8982 5.13757 -82.3518
rradius 31.4444
rwrist -18.7101
rhand -25.8973 -35.1427
rfingers 7.12502
rthumb 0.644928 -65.1215
lclavicle 5.17461e-014 -1.59028e-014
lhumerus -32.8727 -22.3464 98.821
lradius 32.8069
lwrist 4.07631
lhand -13.5907 -23.998
lfingers 7.12502
lthumb 12.5237 5.60671
rfemur -42.04 6.59503 7.13481
rtibia 29.0787
rfoot -16.8983 -10.1335
rtoes -22.993
lfemur 21.9314 1.38423 -25.4912
ltibia 6.36111e-015
lfoot -12.1168 -2.97048
ltoes -7.68344
